<?xml version="1.0" encoding="utf-8"?>
<!-- Generator: Adobe Illustrator 19.0.0, SVG Export Plug-In . SVG Version: 6.00 Build 0)  -->
<svg version="1.1" id="Camada_1" xmlns="http://www.w3.org/2000/svg" xmlns:xlink="http://www.w3.org/1999/xlink" x="0px" y="0px"
	 viewBox="145 -96 330.1 272" style="enable-background:new 145 -96 330.1 272;" xml:space="preserve">
<style type="text/css">
	.st0{display:none;}
	.st1{display:inline;opacity:0.18;fill:#5C5C5C;stroke:#FFFFFF;stroke-width:2;stroke-miterlimit:10;enable-background:new    ;}
	.st2{fill:#5C5C5C;}
	.st999{fill:#FFF;}
	.st3{fill:url(#XMLID_171_);}
	.st4{fill:url(#XMLID_173_);}
	.st5{fill:url(#XMLID_174_);}
	.st6{fill:url(#XMLID_175_);}
	.st7{fill:url(#XMLID_176_);}
	.st8{fill:url(#XMLID_177_);}
	.st9{fill:url(#XMLID_178_);}
	.st10{fill:url(#XMLID_179_);}
	.st11{fill:url(#XMLID_180_);}
	.st12{fill:url(#XMLID_181_);}
	.st13{fill:url(#XMLID_182_);}
	.st14{fill:url(#XMLID_183_);}
	.st15{fill:url(#XMLID_184_);}
	.st16{fill:url(#XMLID_185_);}
	.st17{fill:url(#XMLID_186_);}
	.st18{fill:url(#XMLID_187_);}
	.st19{fill:url(#XMLID_189_);}
	.st20{fill:url(#XMLID_190_);}
	.st21{fill:url(#XMLID_192_);}
	.st22{fill:url(#XMLID_193_);}
	.st23{fill:url(#XMLID_196_);}
	.st24{fill:url(#XMLID_197_);}
	.st25{fill:url(#XMLID_200_);}
	.st26{fill:url(#XMLID_201_);}
	.st27{fill:url(#XMLID_216_);}
	.st28{fill:url(#XMLID_217_);}
	.st29{fill:url(#XMLID_218_);}
	.st30{fill:url(#XMLID_219_);}
	.st31{fill:url(#XMLID_220_);}
	.st32{fill:url(#XMLID_221_);}
	.st33{fill:url(#XMLID_222_);}
	.st34{fill:url(#XMLID_223_);}
	.st35{fill:url(#XMLID_224_);}
	.st36{fill:url(#XMLID_225_);}
	.st37{fill:url(#XMLID_226_);}
	.st38{fill:url(#XMLID_227_);}
	.st39{fill:url(#XMLID_228_);}
	.st40{fill:url(#XMLID_229_);}
	.st41{fill:url(#XMLID_230_);}
	.st42{fill:url(#XMLID_231_);}
	.st43{fill:url(#XMLID_232_);}
</style>
<g id="Camada_2" class="st0">
	<rect id="XMLID_53_" x="290" y="5" class="st1" width="98" height="98"/>
	<rect id="XMLID_51_" x="388" y="5" class="st1" width="98" height="98"/>
	<rect id="XMLID_49_" x="486" y="5" class="st1" width="98" height="98"/>
	<rect id="XMLID_172_" x="584.1" y="5" class="st1" width="98" height="98"/>
	<rect id="XMLID_114_" x="682.1" y="5" class="st1" width="98" height="98"/>
	<rect id="XMLID_116_" x="682.1" y="-93" class="st1" width="98" height="98"/>
	<rect id="XMLID_34_" x="584.1" y="-93" class="st1" width="98" height="98"/>
	<rect id="XMLID_36_" x="486" y="-93" class="st1" width="98" height="98"/>
	<rect id="XMLID_32_" x="388" y="-93" class="st1" width="98" height="98"/>
	<rect id="XMLID_30_" x="412.4" y="-68.6" class="st1" width="49.3" height="49.3"/>
	<rect id="XMLID_31_" x="510.4" y="-68.6" class="st1" width="49.3" height="49.3"/>
	<rect id="XMLID_33_" x="608.4" y="-68.6" class="st1" width="49.3" height="49.3"/>
	<rect id="XMLID_35_" x="706.4" y="-68.6" class="st1" width="49.3" height="49.3"/>
	<rect id="XMLID_72_" x="290" y="-93" class="st1" width="98" height="98"/>
	<rect id="XMLID_107_" x="314.4" y="-68.6" class="st1" width="49.3" height="49.3"/>
	<rect id="XMLID_52_" x="412.4" y="29.4" class="st1" width="49.3" height="49.3"/>
	<rect id="XMLID_50_" x="510.4" y="29.4" class="st1" width="49.3" height="49.3"/>
	<rect id="XMLID_44_" x="608.4" y="29.4" class="st1" width="49.3" height="49.3"/>
	<rect id="XMLID_41_" x="706.4" y="29.4" class="st1" width="49.3" height="49.3"/>
	<rect id="XMLID_37_" x="314.4" y="29.4" class="st1" width="49.3" height="49.3"/>
</g>
<g id="XMLID_39_">
	<g id="XMLID_3_">
		<path id="XMLID_147_" class="st2" d="M171.2-41.7h-11.9c-5.6,0-10.1-4.5-10.1-10.1V-78c0-5.6,4.5-10.1,10.1-10.1h26.2
			c5.6,0,10.1,4.5,10.1,10.1v18c0,0.6-0.5,1-1,1s-1-0.5-1-1v-18c0-4.4-3.6-8-8-8h-26.3c-4.4,0-8,3.6-8,8v26.2c0,4.4,3.6,8,8,8h11.9
			c0.6,0,1,0.5,1,1S171.7-41.7,171.2-41.7z"/>
	</g>
	<g id="XMLID_2_">
		<path id="XMLID_146_" class="st2" d="M188.3-75.7h-15.9c-0.6,0-1-0.5-1-1s0.5-1,1-1h15.9c0.6,0,1,0.5,1,1S188.8-75.7,188.3-75.7z"
			/>
	</g>
	<g id="XMLID_5_">
		<path id="XMLID_145_" class="st2" d="M188.3-63.9h-15.9c-0.6,0-1-0.5-1-1s0.5-1,1-1h15.9c0.6,0,1,0.5,1,1S188.8-63.9,188.3-63.9z"
			/>
	</g>
	<g id="XMLID_7_">
		<path id="XMLID_144_" class="st2" d="M195.5-39c-0.3,0-0.6-0.1-0.8-0.3l-5.5-5.9c-0.4-0.4-0.4-1.1,0.1-1.5
			c0.4-0.4,1.1-0.4,1.5,0.1l5.5,5.9c0.4,0.4,0.4,1.1-0.1,1.5C196-39.1,195.7-39,195.5-39z"/>
	</g>
	<g id="XMLID_4_">
		<path id="XMLID_141_" class="st2" d="M184.2-42.5c-5.2,0-9.5-4.2-9.5-9.5s4.2-9.5,9.5-9.5s9.5,4.2,9.5,9.5S189.4-42.5,184.2-42.5z
			 M184.2-59.4c-4.1,0-7.4,3.3-7.4,7.4s3.3,7.4,7.4,7.4s7.4-3.3,7.4-7.4S188.2-59.4,184.2-59.4z"/>
	</g>
	<g id="XMLID_6_">
		<path id="XMLID_140_" class="st2" d="M160.7-72.9l-4.5-3c-0.5-0.3-0.6-1-0.3-1.4c0.3-0.5,1-0.6,1.4-0.3l3,2l5.4-6
			c0.4-0.4,1-0.5,1.5-0.1c0.4,0.4,0.5,1,0.1,1.5L160.7-72.9z"/>
	</g>
	<g id="XMLID_9_">
		<path id="XMLID_139_" class="st2" d="M160.7-61l-4.5-3c-0.5-0.3-0.6-1-0.3-1.4c0.3-0.5,1-0.6,1.4-0.3l3,2l5.4-6
			c0.4-0.4,1-0.5,1.5-0.1c0.4,0.4,0.5,1,0.1,1.5L160.7-61z"/>
	</g>
	<g id="XMLID_10_">
		<path id="XMLID_137_" class="st2" d="M160.7-48.2l-4.5-3c-0.5-0.3-0.6-1-0.3-1.4c0.3-0.5,1-0.6,1.4-0.3l3,2l5.4-6
			c0.4-0.4,1-0.5,1.5-0.1c0.4,0.4,0.5,1,0.1,1.5L160.7-48.2z"/>
	</g>
</g>
<g id="XMLID_38_">
	<g id="XMLID_11_">
		<path id="XMLID_215_" class="st2" d="M241.4-44.6c-8.9,0-16.1-7.2-16.1-16.1s7.2-16.1,16.1-16.1s16.1,7.2,16.1,16.1
			S250.4-44.6,241.4-44.6z M241.4-74.7c-7.7,0-14,6.3-14,14s6.3,14,14,14s14-6.3,14-14C255.6-68.4,249.3-74.7,241.4-74.7z"/>
	</g>
	<g id="XMLID_21_">
		<path id="XMLID_214_" class="st2" d="M226.9-75.4l-1.4-1.5c0.3-0.3,0.7-0.7,1-1l1.3,1.5C227.7-76,227.3-75.6,226.9-75.4z"/>
	</g>
	<g id="XMLID_22_">
		<path id="XMLID_213_" class="st2" d="M225.2-73.5l-1.6-1.3l0.1-0.1c0.3-0.3,0.7-0.8,0.9-1.1l1.5,1.3c-0.2,0.2-0.6,0.7-0.8,1
			L225.2-73.5z"/>
	</g>
	<g id="XMLID_23_">
		<path id="XMLID_212_" class="st2" d="M223.6-71.1l-1.7-1.1c0.1-0.1,0.2-0.3,0.3-0.5c0.2-0.3,0.4-0.7,0.5-0.9l1.7,1.1
			c-0.1,0.1-0.3,0.5-0.4,0.7C223.8-71.4,223.7-71.2,223.6-71.1z"/>
	</g>
	<g id="XMLID_24_">
		<path id="XMLID_211_" class="st2" d="M222.4-68.7l-1.9-0.8c0.1-0.3,0.4-1,0.6-1.3l1.8,0.9C222.9-69.6,222.6-69,222.4-68.7z"/>
	</g>
	<g id="XMLID_25_">
		<path id="XMLID_210_" class="st2" d="M221.6-66.2l-2-0.5c0.1-0.4,0.3-0.9,0.4-1.3l1.9,0.7C221.8-67,221.7-66.6,221.6-66.2z"/>
	</g>
	<g id="XMLID_20_">
		<path id="XMLID_209_" class="st2" d="M221.1-63.5l-2-0.3v-0.3c0.1-0.4,0.1-0.8,0.2-1.2l2,0.4c-0.1,0.3-0.1,0.7-0.2,1V-63.5z"/>
	</g>
	<g id="XMLID_12_">
		<path id="XMLID_208_" class="st2" d="M241.4-37.9c-12.5,0-22.7-10.2-22.7-22.7c0-0.6,0.5-1,1-1s1,0.5,1,1
			c0,11.4,9.3,20.7,20.7,20.7c11.4,0,20.7-9.3,20.7-20.7s-9.3-20.7-20.7-20.7c-0.6,0-1-0.5-1-1s0.5-1,1-1
			c12.5,0,22.7,10.2,22.7,22.7S254.1-37.9,241.4-37.9z"/>
	</g>
	<g id="XMLID_8_">
		<polygon id="XMLID_207_" class="st2" points="244.2,-78 240.2,-82.4 244.2,-86.8 245.7,-85.4 242.9,-82.4 245.7,-79.3 		"/>
	</g>
	<g id="XMLID_15_">
		<rect id="XMLID_206_" x="240.4" y="-73.6" class="st2" width="2" height="1.6"/>
	</g>
	<g id="XMLID_19_">
		<polygon id="XMLID_205_" class="st2" points="244.8,-56.1 240.4,-60.4 240.4,-69.4 242.4,-69.4 242.4,-61.2 246.2,-57.6 		"/>
	</g>
	<g id="XMLID_16_">
		<rect id="XMLID_204_" x="252.3" y="-61.6" class="st2" width="2" height="1.6"/>
	</g>
	<g id="XMLID_17_">
		<rect id="XMLID_203_" x="240.4" y="-49.7" class="st2" width="2" height="1.6"/>
	</g>
	<g id="XMLID_18_">
		<rect id="XMLID_202_" x="228.3" y="-61.6" class="st2" width="2" height="1.6"/>
	</g>
</g>
<g id="XMLID_1_">
	<g id="XMLID_42_">
		<path id="XMLID_199_" class="st2" d="M324.5-38.7h-28.3c-3.9,0-5.2-3.9-5.4-5.9v-0.1l2.9-32.9H327l2.9,32.9v0.1
			C329.7-42.6,328.4-38.7,324.5-38.7z M292.7-44.7c0.1,0.6,0.5,4,3.4,4h28.3c2.9,0,3.3-3.5,3.4-4l-2.6-30.9h-29.7L292.7-44.7z"/>
	</g>
	<g id="XMLID_40_">
		<path id="XMLID_198_" class="st2" d="M319.2-70c-0.5,0-1-0.4-1-1v-6.5c0-4.4-3.6-7.9-7.9-7.9c-4.4,0-7.9,3.6-7.9,7.9v6.5
			c0,0.5-0.4,1-1,1c-0.5,0-1-0.4-1-1v-6.5c0-5.5,4.4-9.9,9.9-9.9s9.9,4.4,9.9,9.9v6.5C320.2-70.4,319.8-70,319.2-70z"/>
	</g>
</g>
<g id="XMLID_45_">
	<g id="XMLID_43_">
		<path id="XMLID_195_" class="st2" d="M378-38.2c-0.8,0-1.5-0.2-2.2-0.7l-1.6-1c-0.5-0.3-1-0.4-1.5-0.3l-1.9,0.4
			c-1.6,0.4-3.3-0.3-4.3-1.7l-1.1-1.5c-0.3-0.4-0.8-0.7-1.3-0.8l-1.9-0.3c-1.7-0.3-3-1.6-3.3-3.2l-0.4-1.8c-0.1-0.5-0.4-1-0.9-1.3
			l-1.6-1c-1.4-0.9-2.2-2.6-1.8-4.2l0.3-1.8c0.1-0.5,0-1.1-0.3-1.5l-1.1-1.5c-1-1.4-1-3.2-0.1-4.6l1-1.6c0.3-0.4,0.4-1,0.3-1.5
			l-0.4-1.8c-0.4-1.6,0.3-3.3,1.7-4.3l1.5-1.1c0.4-0.3,0.7-0.8,0.8-1.3l0.3-1.8c0.3-1.6,1.6-2.9,3.2-3.3l1.9-0.4
			c0.5-0.1,1-0.4,1.3-0.9l1-1.6c0.9-1.4,2.6-2.1,4.2-1.8l1.9,0.3c0.5,0.1,1.1,0,1.5-0.3l0,0l1.6-1.1c1.4-0.9,3.2-1,4.6-0.1l1.6,1
			c0.5,0.3,1,0.4,1.5,0.3l1.9-0.4c1.6-0.4,3.3,0.3,4.3,1.7l1.1,1.5c0.3,0.4,0.8,0.7,1.3,0.8l1.9,0.3c1.7,0.3,3,1.6,3.3,3.2l0.4,1.8
			c0.1,0.5,0.4,1,0.9,1.3l1.6,1c1.4,0.9,2.2,2.6,1.8,4.2l-0.3,1.8c-0.1,0.5,0,1.1,0.3,1.5l1.1,1.6c1,1.4,1,3.2,0.1,4.6l-1,1.6
			c-0.3,0.4-0.4,1-0.3,1.5l0.4,1.8c0.4,1.6-0.3,3.3-1.7,4.3l-1.5,1.1c-0.4,0.3-0.7,0.8-0.8,1.3L397-48c-0.3,1.6-1.6,2.9-3.2,3.3
			l-1.9,0.4c-0.5,0.1-1,0.4-1.3,0.9l-1,1.6c-0.9,1.4-2.6,2.1-4.2,1.8l-1.9-0.3c-0.5-0.1-1.1,0-1.5,0.3l-1.6,1.1
			C379.7-38.4,378.9-38.2,378-38.2z M373.2-42.3c0.8,0,1.6,0.2,2.2,0.7l1.6,1c0.7,0.4,1.6,0.4,2.2,0l1.6-1.1c0.9-0.6,2-0.9,3.1-0.7
			l1.9,0.3c0.8,0.1,1.6-0.2,2.1-0.9l1-1.6c0.6-0.9,1.5-1.6,2.6-1.8l1.9-0.4c0.8-0.2,1.4-0.8,1.6-1.6l0.3-1.8c0.2-1.1,0.8-2,1.7-2.7
			l1.5-1.1c0.7-0.5,1-1.3,0.8-2.1l-0.4-1.8c-0.2-1.1,0-2.2,0.6-3.1l1-1.6c0.4-0.7,0.4-1.6,0-2.3l-1.1-1.5c-0.6-0.9-0.9-2-0.7-3.1
			l0.3-1.8c0.1-0.8-0.2-1.6-0.9-2.1l-1.6-1c-0.9-0.6-1.6-1.5-1.8-2.6l-0.4-1.8c-0.2-0.8-0.8-1.4-1.6-1.6l-1.9-0.3
			c-1.1-0.2-2-0.8-2.7-1.7l-1.1-1.5c-0.5-0.7-1.3-1-2.1-0.8l-1.9,0.4c-1.1,0.2-2.2,0-3.1-0.6l-1.6-1c-0.7-0.4-1.6-0.4-2.2,0
			l-1.6,1.1c-0.9,0.6-2,0.9-3.1,0.7l-1.9-0.3c-0.8-0.1-1.6,0.2-2.1,0.9l-1,1.6c-0.6,0.9-1.5,1.6-2.6,1.8l-1.9,0.4
			c-0.8,0.2-1.4,0.8-1.6,1.6l-0.3,1.8c-0.2,1.1-0.8,2-1.7,2.7l-1.5,1.1c-0.7,0.5-1,1.3-0.8,2.1l0.4,1.8c0.2,1.1,0,2.2-0.6,3.1
			l-1,1.6c-0.4,0.7-0.4,1.6,0,2.3l1.1,1.5c0.6,0.9,0.9,2,0.7,3.1l-0.3,1.8c-0.1,0.8,0.2,1.6,0.9,2.1l1.6,1c0.9,0.6,1.6,1.5,1.8,2.6
			l0.4,1.8c0.2,0.8,0.8,1.4,1.6,1.6l1.9,0.3c1.1,0.2,2,0.8,2.7,1.7l1.1,1.5c0.5,0.7,1.3,1,2.1,0.8l1.9-0.4
			C372.5-42.2,372.9-42.3,373.2-42.3z"/>
	</g>
	<g id="XMLID_46_">
		<path id="XMLID_194_" class="st2" d="M371.8-50.8c-0.2,0-0.3,0-0.5-0.1c-0.5-0.3-0.7-0.9-0.5-1.4l11.4-22.8
			c0.3-0.5,0.9-0.7,1.4-0.5c0.5,0.3,0.7,0.9,0.5,1.4l-11.4,22.8C372.5-51,372.2-50.8,371.8-50.8z"/>
	</g>
	<g id="XMLID_47_">
		<path id="XMLID_191_" class="st2" d="M370.8-62.2c-2.5,0-4.1-1.4-4.1-3.6V-71c0-2.2,1.7-3.6,4.1-3.6c2.4,0,4.1,1.4,4.1,3.6v5.3
			C374.9-63.6,373.2-62.2,370.8-62.2z M370.8-72.5c-0.6,0-2,0.1-2,1.5v5.3c0,1.3,1.4,1.5,2,1.5c0.6,0,2-0.1,2-1.5V-71
			C372.8-72.4,371.4-72.5,370.8-72.5z"/>
	</g>
	<g id="XMLID_48_">
		<path id="XMLID_188_" class="st2" d="M384-51.8c-2.5,0-4.1-1.4-4.1-3.6v-5.3c0-2.2,1.7-3.6,4.1-3.6c2.5,0,4.1,1.4,4.1,3.6v5.3
			C388.3-53.3,386.5-51.8,384-51.8z M384-62.2c-0.6,0-2,0.1-2,1.5v5.3c0,1.3,1.4,1.5,2,1.5c0.6,0,2-0.1,2-1.5v-5.3
			C386.2-62,384.7-62.2,384-62.2z"/>
	</g>
</g>
<g id="XMLID_126_">
	<g id="XMLID_131_">
		<path id="XMLID_132_" class="st999" d="M174.1,13.4c-5.1,0-9.3-4.2-9.3-9.3s4.2-9.3,9.3-9.3s9.3,4.2,9.3,9.3S179.2,13.4,174.1,13.4z
			 M174.1-3c-4,0-7.2,3.2-7.2,7.2s3.2,7.2,7.2,7.2s7.2-3.2,7.2-7.2S178.1-3,174.1-3z"/>
	</g>
	<g id="XMLID_127_">
		<path id="XMLID_128_" class="st999" d="M177,28.9h-5.7c-1.5,0-2.7-1.2-2.7-2.7v-3.4c-0.6-0.2-1.1-0.3-1.7-0.6
			c-0.7-0.3-1.3-0.6-2-0.9l-2.4,2.4c-1,1-2.8,1-3.9,0l-4-4c-0.5-0.5-0.8-1.2-0.8-1.9s0.3-1.4,0.8-1.9l2.4-2.4
			c-0.3-0.5-0.5-1-0.8-1.6c-0.3-0.7-0.5-1.3-0.7-2h-3.4c-1.5,0-2.7-1.2-2.7-2.7V1.5c0-1.5,1.2-2.7,2.7-2.7h3.4
			c0.2-0.6,0.4-1.1,0.6-1.7c0.2-0.5,0.6-1.3,1-2l-2.4-2.4c-0.5-0.5-0.8-1.2-0.8-1.9s0.3-1.4,0.8-1.9l4-4c1-1,2.8-1,3.9,0l2.4,2.4
			c0.6-0.3,1.2-0.6,2-0.9c0.6-0.2,1.1-0.4,1.7-0.6v-3.4c0-1.5,1.2-2.7,2.7-2.7h5.7c1.5,0,2.7,1.2,2.7,2.7v3.4c0.7,0.2,1.3,0.4,2,0.7
			c0.6,0.3,1.1,0.5,1.6,0.8l2.4-2.4c1-1,2.8-1,3.9,0l4,4c0.5,0.5,0.8,1.2,0.8,1.9s-0.3,1.4-0.8,1.9l-2.4,2.4c0.3,0.6,0.6,1.2,0.9,2
			c0.2,0.6,0.4,1.1,0.6,1.7h3.4c1.5,0,2.7,1.2,2.7,2.7v5.7c0,1.5-1.2,2.7-2.7,2.7h-3.4c-0.2,0.6-0.4,1.1-0.7,1.8s-0.5,1.1-0.8,1.7
			l2.4,2.4c0.5,0.5,0.8,1.2,0.8,1.9s-0.3,1.4-0.8,1.9l-4,4c-1,1-2.8,1-3.9,0l-2.4-2.4c-0.5,0.3-1,0.5-1.6,0.8
			c-0.7,0.3-1.3,0.5-2,0.7v3.4C179.8,27.7,178.5,28.9,177,28.9z M164.6,18.7l0.7,0.4c0.8,0.5,1.5,0.8,2.4,1.2
			c0.8,0.3,1.4,0.5,2.2,0.7l0.8,0.2v5c0,0.3,0.3,0.6,0.6,0.6h5.7c0.3,0,0.6-0.3,0.6-0.6v-5l0.8-0.2c0.9-0.2,1.6-0.5,2.5-0.9
			c0.8-0.3,1.4-0.6,2.1-1.1l0.7-0.4l3.5,3.5c0.2,0.2,0.6,0.2,0.9,0l4-4c0.1-0.1,0.2-0.3,0.2-0.4c0-0.2-0.1-0.3-0.2-0.4l-3.6-3.6
			l0.4-0.7c0.5-0.8,0.7-1.3,1.1-2.2c0.4-0.8,0.5-1.4,0.8-2.3l0.2-0.8h5c0.3,0,0.6-0.3,0.6-0.6V1.4c0-0.3-0.3-0.6-0.6-0.6h-5L190.8,0
			c-0.2-0.8-0.4-1.4-0.7-2.2c-0.4-0.9-0.7-1.6-1.2-2.4l-0.4-0.7l3.6-3.6c0.1-0.1,0.2-0.3,0.2-0.4s-0.1-0.3-0.2-0.4l-4-4
			c-0.2-0.2-0.6-0.2-0.9,0l-3.5,3.5l-0.7-0.4c-0.7-0.4-1.3-0.7-2.1-1.1c-0.9-0.4-1.6-0.6-2.5-0.9l-0.8-0.2v-5c0-0.3-0.3-0.6-0.6-0.6
			h-5.7c-0.3,0-0.6,0.3-0.6,0.6v5l-0.8,0.2c-0.8,0.2-1.4,0.4-2.2,0.7c-0.9,0.4-1.6,0.7-2.4,1.2l-0.7,0.4l-3.6-3.6
			c-0.2-0.2-0.6-0.2-0.9,0l-4,4c-0.1,0.1-0.2,0.3-0.2,0.4s0.1,0.3,0.2,0.4l3.5,3.5l-0.4,0.7c-0.5,0.8-1,1.9-1.2,2.5
			c-0.3,0.8-0.5,1.5-0.7,2.2l-0.2,0.8h-5c-0.3,0-0.6,0.3-0.6,0.6v5.7c0,0.3,0.3,0.6,0.6,0.6h5l0.2,0.8c0.2,0.9,0.5,1.6,0.9,2.5l0,0
			c0.3,0.8,0.6,1.4,1.1,2.1l0.4,0.7l-3.5,3.5c-0.1,0.1-0.2,0.3-0.2,0.4s0.1,0.3,0.2,0.4l4,4c0.2,0.2,0.6,0.2,0.9,0L164.6,18.7z"/>
	</g>
</g>
<g id="XMLID_122_">
	<path id="XMLID_123_" class="st2" d="M237.6,27.4c-0.2,0-0.4,0-0.5-0.1c-0.3-0.2-0.5-0.6-0.5-0.9V6.1l-18.6-18.8
		c-0.3-0.3-0.4-0.8-0.2-1.2c0.2-0.4,0.6-0.7,1-0.7H266c0.4,0,0.8,0.3,1,0.7s0.1,0.9-0.2,1.2l-18.8,19v15c0,0.4-0.2,0.8-0.6,0.9
		l-9.1,5.2C237.9,27.3,237.8,27.4,237.6,27.4z M221.3-12.6l17.1,17.3c0.2,0.2,0.3,0.5,0.3,0.8v18.9l6.9-3.9V5.7
		c0-0.3,0.1-0.6,0.3-0.8l17.3-17.5H221.3z"/>
</g>
<g id="XMLID_14_">
	<g id="XMLID_118_">
		<path id="XMLID_119_" class="st2" d="M310.3,29.7c-13.6,0-24.6-11-24.6-24.6s11-24.6,24.6-24.6c13.6,0,24.6,11,24.6,24.6
			C334.9,18.7,323.9,29.7,310.3,29.7z M310.3-17.5c-12.5,0-22.6,10.1-22.6,22.6s10.1,22.6,22.6,22.6s22.6-10.1,22.6-22.6
			C332.9-7.3,322.8-17.5,310.3-17.5z"/>
	</g>
	<g id="XMLID_28_">
		<path id="XMLID_29_" class="st2" d="M310.3,10.1c-6.2,0-11.2-5-11.2-11.2s5-11.2,11.2-11.2s11.2,5,11.2,11.2
			S316.5,10.1,310.3,10.1z M310.3-10.3c-5.1,0-9.2,4.1-9.2,9.2c0,5.1,4.1,9.2,9.2,9.2c5.1,0,9.2-4.1,9.2-9.2S315.4-10.3,310.3-10.3z
			"/>
	</g>
	<g id="XMLID_26_">
		<path id="XMLID_27_" class="st2" d="M327.2,21c-3-6.6-9.6-10.9-16.9-10.9s-13.9,4.3-16.9,10.9l-1.8-0.8
			c3.3-7.3,10.7-12.1,18.7-12.1c8.1,0,15.4,4.7,18.7,12.1L327.2,21z"/>
	</g>
</g>
<g id="XMLID_106_">
	<g id="XMLID_104_">
		<path id="XMLID_110_" class="st2" d="M372.5,17.1c-9.7,0-17.6-7.9-17.6-17.6s7.9-17.6,17.6-17.6s17.6,7.9,17.6,17.6
			S382.3,17.1,372.5,17.1z M372.5-15.6c-8.3,0-15.1,6.8-15.1,15.1s6.8,15.1,15.1,15.1c8.3,0,15.1-6.8,15.1-15.1
			C387.5-8.9,380.9-15.6,372.5-15.6z"/>
	</g>
	<g id="XMLID_105_">
		<path id="XMLID_109_" class="st2" d="M399.5,28.8c-0.3,0-0.7-0.1-0.9-0.4l-14.9-16.1c-0.5-0.5-0.4-1.3,0.1-1.8s1.3-0.4,1.8,0.1
			l14.9,16.1c0.5,0.5,0.4,1.3-0.1,1.8C400.2,28.7,399.8,28.8,399.5,28.8z"/>
	</g>
</g>
<g id="XMLID_158_">
	<path id="XMLID_165_" class="st2" d="M452.8-8.6V-18c0-2.1-1.7-3.8-3.8-3.8h-22.3c-2.1,0-3.8,1.7-3.8,3.8v44c0,2.1,1.7,3.8,3.8,3.8
		H449c2.1,0,3.8-1.7,3.8-3.8V15.6h-2.4v7.5h-25.1V-16h25.1v7.5h2.4V-8.6z M437.9,24.4c0.9,0,1.6,0.7,1.6,1.6s-0.7,1.6-1.6,1.6
		s-1.6-0.7-1.6-1.6S437,24.4,437.9,24.4z M441.9-18.6c0,0.2-0.1,0.3-0.3,0.3h-7.4c-0.2,0-0.3-0.1-0.3-0.3v-0.1
		c0-0.2,0.1-0.3,0.3-0.3h7.4C441.8-19,441.9-18.9,441.9-18.6L441.9-18.6L441.9-18.6z"/>
	<polygon id="XMLID_159_" class="st2" points="467.3,-11.6 465.6,-11.6 464.3,-11.6 459.3,11.1 439.4,11.1 436.1,-3.4 459.3,-3.4 
		460,-6.4 432.5,-6.4 437,14.1 458.7,14.1 461.6,14.1 466.7,-8.7 471,-8.7 471,-11.6 	"/>
	<circle id="XMLID_157_" class="st2" cx="442.3" cy="17.9" r="2.8"/>
	<circle id="XMLID_163_" class="st2" cx="456.7" cy="17.9" r="2.8"/>
</g>
<polygon id="XMLID_168_" class="st999" points="435.5,-63.2 457.8,-85.5 455.6,-87.7 431.1,-63.2 455.6,-38.7 457.8,-40.9 "/>
<g id="XMLID_143_">
	<g id="XMLID_167_">
		
			<linearGradient id="XMLID_171_" gradientUnits="userSpaceOnUse" x1="149.15" y1="128.9" x2="196.5021" y2="128.9" gradientTransform="matrix(1 0 0 -1 0 200)">
			<stop  offset="0" style="stop-color:#EF4547"/>
			<stop  offset="1" style="stop-color:#F9843B"/>
		</linearGradient>
		<path id="XMLID_169_" class="st3" d="M171.2,94.3h-11.9c-5.6,0-10.1-4.5-10.1-10.1V58c0-5.6,4.5-10.1,10.1-10.1h26.2
			c5.6,0,10.1,4.5,10.1,10.1v18c0,0.6-0.5,1-1,1s-1-0.5-1-1V58c0-4.4-3.6-8-8-8h-26.3c-4.4,0-8,3.6-8,8v26.2c0,4.4,3.6,8,8,8h11.9
			c0.6,0,1,0.5,1,1S171.7,94.3,171.2,94.3z"/>
	</g>
	<g id="XMLID_164_">
		
			<linearGradient id="XMLID_173_" gradientUnits="userSpaceOnUse" x1="149.15" y1="140.7" x2="196.5021" y2="140.7" gradientTransform="matrix(1 0 0 -1 0 200)">
			<stop  offset="0" style="stop-color:#EF4547"/>
			<stop  offset="1" style="stop-color:#F9843B"/>
		</linearGradient>
		<path id="XMLID_166_" class="st4" d="M188.3,60.3h-15.9c-0.6,0-1-0.5-1-1s0.5-1,1-1h15.9c0.6,0,1,0.5,1,1S188.8,60.3,188.3,60.3z"
			/>
	</g>
	<g id="XMLID_161_">
		
			<linearGradient id="XMLID_174_" gradientUnits="userSpaceOnUse" x1="149.15" y1="128.9" x2="196.5021" y2="128.9" gradientTransform="matrix(1 0 0 -1 0 200)">
			<stop  offset="0" style="stop-color:#EF4547"/>
			<stop  offset="1" style="stop-color:#F9843B"/>
		</linearGradient>
		<path id="XMLID_162_" class="st5" d="M188.3,72.1h-15.9c-0.6,0-1-0.5-1-1s0.5-1,1-1h15.9c0.6,0,1,0.5,1,1S188.8,72.1,188.3,72.1z"
			/>
	</g>
	<g id="XMLID_156_">
		
			<linearGradient id="XMLID_175_" gradientUnits="userSpaceOnUse" x1="149.15" y1="106.9943" x2="196.5021" y2="106.9943" gradientTransform="matrix(1 0 0 -1 0 200)">
			<stop  offset="0" style="stop-color:#EF4547"/>
			<stop  offset="1" style="stop-color:#F9843B"/>
		</linearGradient>
		<path id="XMLID_160_" class="st6" d="M195.5,97c-0.3,0-0.6-0.1-0.8-0.3l-5.5-5.9c-0.4-0.4-0.4-1.1,0.1-1.5
			c0.4-0.4,1.1-0.4,1.5,0.1l5.5,5.9c0.4,0.4,0.4,1.1-0.1,1.5C196,96.9,195.7,97,195.5,97z"/>
	</g>
	<g id="XMLID_154_">
		
			<linearGradient id="XMLID_176_" gradientUnits="userSpaceOnUse" x1="149.15" y1="116" x2="196.5021" y2="116" gradientTransform="matrix(1 0 0 -1 0 200)">
			<stop  offset="0" style="stop-color:#EF4547"/>
			<stop  offset="1" style="stop-color:#F9843B"/>
		</linearGradient>
		<path id="XMLID_155_" class="st7" d="M184.2,93.5c-5.2,0-9.5-4.2-9.5-9.5c0-5.3,4.2-9.5,9.5-9.5s9.5,4.2,9.5,9.5
			C193.7,89.3,189.4,93.5,184.2,93.5z M184.2,76.6c-4.1,0-7.4,3.3-7.4,7.4c0,4.1,3.3,7.4,7.4,7.4s7.4-3.3,7.4-7.4
			S188.2,76.6,184.2,76.6z"/>
	</g>
	<g id="XMLID_152_">
		
			<linearGradient id="XMLID_177_" gradientUnits="userSpaceOnUse" x1="149.15" y1="141.4273" x2="196.5021" y2="141.4273" gradientTransform="matrix(1 0 0 -1 0 200)">
			<stop  offset="0" style="stop-color:#EF4547"/>
			<stop  offset="1" style="stop-color:#F9843B"/>
		</linearGradient>
		<path id="XMLID_153_" class="st8" d="M160.7,63.1l-4.5-3c-0.5-0.3-0.6-1-0.3-1.4c0.3-0.5,1-0.6,1.4-0.3l3,2l5.4-6
			c0.4-0.4,1-0.5,1.5-0.1c0.4,0.4,0.5,1,0.1,1.5L160.7,63.1z"/>
	</g>
	<g id="XMLID_150_">
		
			<linearGradient id="XMLID_178_" gradientUnits="userSpaceOnUse" x1="149.15" y1="129.5273" x2="196.5021" y2="129.5273" gradientTransform="matrix(1 0 0 -1 0 200)">
			<stop  offset="0" style="stop-color:#EF4547"/>
			<stop  offset="1" style="stop-color:#F9843B"/>
		</linearGradient>
		<path id="XMLID_151_" class="st9" d="M160.7,75l-4.5-3c-0.5-0.3-0.6-1-0.3-1.4c0.3-0.5,1-0.6,1.4-0.3l3,2l5.4-6
			c0.4-0.4,1-0.5,1.5-0.1c0.4,0.4,0.5,1,0.1,1.5L160.7,75z"/>
	</g>
	<g id="XMLID_148_">
		
			<linearGradient id="XMLID_179_" gradientUnits="userSpaceOnUse" x1="149.15" y1="116.7273" x2="196.5021" y2="116.7273" gradientTransform="matrix(1 0 0 -1 0 200)">
			<stop  offset="0" style="stop-color:#EF4547"/>
			<stop  offset="1" style="stop-color:#F9843B"/>
		</linearGradient>
		<path id="XMLID_149_" class="st10" d="M160.7,87.8l-4.5-3c-0.5-0.3-0.6-1-0.3-1.4c0.3-0.5,1-0.6,1.4-0.3l3,2l5.4-6
			c0.4-0.4,1-0.5,1.5-0.1c0.4,0.4,0.5,1,0.1,1.5L160.7,87.8z"/>
	</g>
</g>
<g id="XMLID_93_">
	<g id="XMLID_138_">
		
			<linearGradient id="XMLID_180_" gradientUnits="userSpaceOnUse" x1="218.15" y1="124.7" x2="265.4939" y2="124.7" gradientTransform="matrix(1 0 0 -1 0 200)">
			<stop  offset="0" style="stop-color:#EF4547"/>
			<stop  offset="1" style="stop-color:#F9843B"/>
		</linearGradient>
		<path id="XMLID_142_" class="st11" d="M241.4,91.4c-8.9,0-16.1-7.2-16.1-16.1s7.2-16.1,16.1-16.1s16.1,7.2,16.1,16.1
			C257.5,84.2,250.4,91.4,241.4,91.4z M241.4,61.3c-7.7,0-14,6.3-14,14s6.3,14,14,14s14-6.3,14-14C255.6,67.6,249.3,61.3,241.4,61.3
			z"/>
	</g>
	<g id="XMLID_135_">
		
			<linearGradient id="XMLID_181_" gradientUnits="userSpaceOnUse" x1="218.15" y1="140.65" x2="265.4939" y2="140.65" gradientTransform="matrix(1 0 0 -1 0 200)">
			<stop  offset="0" style="stop-color:#EF4547"/>
			<stop  offset="1" style="stop-color:#F9843B"/>
		</linearGradient>
		<path id="XMLID_136_" class="st12" d="M226.9,60.6l-1.4-1.5c0.3-0.3,0.7-0.7,1-1l1.3,1.5C227.7,60,227.3,60.4,226.9,60.6z"/>
	</g>
	<g id="XMLID_133_">
		
			<linearGradient id="XMLID_182_" gradientUnits="userSpaceOnUse" x1="218.15" y1="138.75" x2="265.4939" y2="138.75" gradientTransform="matrix(1 0 0 -1 0 200)">
			<stop  offset="0" style="stop-color:#EF4547"/>
			<stop  offset="1" style="stop-color:#F9843B"/>
		</linearGradient>
		<path id="XMLID_134_" class="st13" d="M225.2,62.5l-1.6-1.3l0.1-0.1c0.3-0.3,0.7-0.8,0.9-1.1l1.5,1.3c-0.2,0.2-0.6,0.7-0.8,1
			L225.2,62.5z"/>
	</g>
	<g id="XMLID_129_">
		
			<linearGradient id="XMLID_183_" gradientUnits="userSpaceOnUse" x1="218.15" y1="136.35" x2="265.4939" y2="136.35" gradientTransform="matrix(1 0 0 -1 0 200)">
			<stop  offset="0" style="stop-color:#EF4547"/>
			<stop  offset="1" style="stop-color:#F9843B"/>
		</linearGradient>
		<path id="XMLID_130_" class="st14" d="M223.6,64.9l-1.7-1.1c0.1-0.1,0.2-0.3,0.3-0.5c0.2-0.3,0.4-0.7,0.5-0.9l1.7,1.1
			c-0.1,0.1-0.3,0.5-0.4,0.7C223.8,64.6,223.7,64.8,223.6,64.9z"/>
	</g>
	<g id="XMLID_124_">
		
			<linearGradient id="XMLID_184_" gradientUnits="userSpaceOnUse" x1="218.15" y1="133.75" x2="265.4939" y2="133.75" gradientTransform="matrix(1 0 0 -1 0 200)">
			<stop  offset="0" style="stop-color:#EF4547"/>
			<stop  offset="1" style="stop-color:#F9843B"/>
		</linearGradient>
		<path id="XMLID_125_" class="st15" d="M222.4,67.3l-1.9-0.8c0.1-0.3,0.4-1,0.6-1.3l1.8,0.9C222.9,66.4,222.6,67,222.4,67.3z"/>
	</g>
	<g id="XMLID_120_">
		
			<linearGradient id="XMLID_185_" gradientUnits="userSpaceOnUse" x1="218.15" y1="131.1" x2="265.4939" y2="131.1" gradientTransform="matrix(1 0 0 -1 0 200)">
			<stop  offset="0" style="stop-color:#EF4547"/>
			<stop  offset="1" style="stop-color:#F9843B"/>
		</linearGradient>
		<path id="XMLID_121_" class="st16" d="M221.6,69.8l-2-0.5c0.1-0.4,0.3-0.9,0.4-1.3l1.9,0.7C221.8,69,221.7,69.4,221.6,69.8z"/>
	</g>
	<g id="XMLID_115_">
		
			<linearGradient id="XMLID_186_" gradientUnits="userSpaceOnUse" x1="218.15" y1="128.4" x2="265.4939" y2="128.4" gradientTransform="matrix(1 0 0 -1 0 200)">
			<stop  offset="0" style="stop-color:#EF4547"/>
			<stop  offset="1" style="stop-color:#F9843B"/>
		</linearGradient>
		<path id="XMLID_117_" class="st17" d="M221.1,72.5l-2-0.3v-0.3c0.1-0.4,0.1-0.8,0.2-1.2l2,0.4c-0.1,0.3-0.1,0.7-0.2,1V72.5z"/>
	</g>
	<g id="XMLID_112_">
		
			<linearGradient id="XMLID_187_" gradientUnits="userSpaceOnUse" x1="218.15" y1="124.6" x2="265.4939" y2="124.6" gradientTransform="matrix(1 0 0 -1 0 200)">
			<stop  offset="0" style="stop-color:#EF4547"/>
			<stop  offset="1" style="stop-color:#F9843B"/>
		</linearGradient>
		<path id="XMLID_113_" class="st18" d="M241.4,98.1c-12.5,0-22.7-10.2-22.7-22.7c0-0.6,0.5-1,1-1s1,0.5,1,1
			c0,11.4,9.3,20.7,20.7,20.7c11.4,0,20.7-9.3,20.7-20.7s-9.3-20.7-20.7-20.7c-0.6,0-1-0.5-1-1s0.5-1,1-1
			c12.5,0,22.7,10.2,22.7,22.7C264.2,87.9,254.1,98.1,241.4,98.1z"/>
	</g>
	<g id="XMLID_108_">
		
			<linearGradient id="XMLID_189_" gradientUnits="userSpaceOnUse" x1="218.15" y1="146.4" x2="265.4939" y2="146.4" gradientTransform="matrix(1 0 0 -1 0 200)">
			<stop  offset="0" style="stop-color:#EF4547"/>
			<stop  offset="1" style="stop-color:#F9843B"/>
		</linearGradient>
		<polygon id="XMLID_111_" class="st19" points="244.2,58 240.2,53.6 244.2,49.2 245.7,50.6 242.9,53.6 245.7,56.7 		"/>
	</g>
	<g id="XMLID_102_">
		
			<linearGradient id="XMLID_190_" gradientUnits="userSpaceOnUse" x1="218.15" y1="136.8" x2="265.4939" y2="136.8" gradientTransform="matrix(1 0 0 -1 0 200)">
			<stop  offset="0" style="stop-color:#EF4547"/>
			<stop  offset="1" style="stop-color:#F9843B"/>
		</linearGradient>
		<rect id="XMLID_103_" x="240.4" y="62.4" class="st20" width="2" height="1.6"/>
	</g>
	<g id="XMLID_100_">
		
			<linearGradient id="XMLID_192_" gradientUnits="userSpaceOnUse" x1="218.15" y1="126.75" x2="265.4939" y2="126.75" gradientTransform="matrix(1 0 0 -1 0 200)">
			<stop  offset="0" style="stop-color:#EF4547"/>
			<stop  offset="1" style="stop-color:#F9843B"/>
		</linearGradient>
		<polygon id="XMLID_101_" class="st21" points="244.8,79.9 240.4,75.6 240.4,66.6 242.4,66.6 242.4,74.8 246.2,78.4 		"/>
	</g>
	<g id="XMLID_98_">
		
			<linearGradient id="XMLID_193_" gradientUnits="userSpaceOnUse" x1="218.15" y1="124.8" x2="265.4939" y2="124.8" gradientTransform="matrix(1 0 0 -1 0 200)">
			<stop  offset="0" style="stop-color:#EF4547"/>
			<stop  offset="1" style="stop-color:#F9843B"/>
		</linearGradient>
		<rect id="XMLID_99_" x="252.3" y="74.4" class="st22" width="2" height="1.6"/>
	</g>
	<g id="XMLID_96_">
		
			<linearGradient id="XMLID_196_" gradientUnits="userSpaceOnUse" x1="218.15" y1="112.9" x2="265.4939" y2="112.9" gradientTransform="matrix(1 0 0 -1 0 200)">
			<stop  offset="0" style="stop-color:#EF4547"/>
			<stop  offset="1" style="stop-color:#F9843B"/>
		</linearGradient>
		<rect id="XMLID_97_" x="240.4" y="86.3" class="st23" width="2" height="1.6"/>
	</g>
	<g id="XMLID_94_">
		
			<linearGradient id="XMLID_197_" gradientUnits="userSpaceOnUse" x1="218.15" y1="124.8" x2="265.4939" y2="124.8" gradientTransform="matrix(1 0 0 -1 0 200)">
			<stop  offset="0" style="stop-color:#EF4547"/>
			<stop  offset="1" style="stop-color:#F9843B"/>
		</linearGradient>
		<rect id="XMLID_95_" x="228.3" y="74.4" class="st24" width="2" height="1.6"/>
	</g>
</g>
<g id="XMLID_88_">
	<g id="XMLID_91_">
		
			<linearGradient id="XMLID_200_" gradientUnits="userSpaceOnUse" x1="292.8167" y1="122.15" x2="329.5378" y2="122.15" gradientTransform="matrix(1 0 0 -1 0 200)">
			<stop  offset="0" style="stop-color:#EF4547"/>
			<stop  offset="1" style="stop-color:#F9843B"/>
		</linearGradient>
		<path id="XMLID_92_" class="st25" d="M324.5,97.3h-28.3c-3.9,0-5.2-3.9-5.4-5.9v-0.1l2.9-32.9H327l2.9,32.9v0.1
			C329.7,93.4,328.4,97.3,324.5,97.3z M292.7,91.3c0.1,0.6,0.5,4,3.4,4h28.3c2.9,0,3.3-3.5,3.4-4l-2.6-30.9h-29.7L292.7,91.3z"/>
	</g>
	<g id="XMLID_89_">
		
			<linearGradient id="XMLID_201_" gradientUnits="userSpaceOnUse" x1="292.8167" y1="142.7" x2="329.5378" y2="142.7" gradientTransform="matrix(1 0 0 -1 0 200)">
			<stop  offset="0" style="stop-color:#EF4547"/>
			<stop  offset="1" style="stop-color:#F9843B"/>
		</linearGradient>
		<path id="XMLID_90_" class="st26" d="M319.2,66c-0.5,0-1-0.4-1-1v-6.5c0-4.4-3.6-7.9-7.9-7.9c-4.4,0-7.9,3.6-7.9,7.9V65
			c0,0.5-0.4,1-1,1c-0.5,0-1-0.4-1-1v-6.5c0-5.5,4.4-9.9,9.9-9.9s9.9,4.4,9.9,9.9V65C320.2,65.6,319.8,66,319.2,66z"/>
	</g>
</g>
<g id="XMLID_79_">
	<g id="XMLID_86_">
		
			<linearGradient id="XMLID_216_" gradientUnits="userSpaceOnUse" x1="352.8167" y1="127.2136" x2="403.8341" y2="127.2136" gradientTransform="matrix(1 0 0 -1 0 200)">
			<stop  offset="0" style="stop-color:#EF4547"/>
			<stop  offset="1" style="stop-color:#F9843B"/>
		</linearGradient>
		<path id="XMLID_87_" class="st27" d="M378,97.8c-0.8,0-1.5-0.2-2.2-0.7l-1.6-1c-0.5-0.3-1-0.4-1.5-0.3l-1.9,0.4
			c-1.6,0.4-3.3-0.3-4.3-1.7l-1.1-1.5c-0.3-0.4-0.8-0.7-1.3-0.8l-1.9-0.3c-1.7-0.3-3-1.6-3.3-3.2l-0.4-1.8c-0.1-0.5-0.4-1-0.9-1.3
			l-1.6-1c-1.4-0.9-2.2-2.6-1.8-4.2l0.3-1.8c0.1-0.5,0-1.1-0.3-1.5l-1.1-1.5c-1-1.4-1-3.2-0.1-4.6l1-1.6c0.3-0.4,0.4-1,0.3-1.5
			l-0.4-1.8c-0.4-1.6,0.3-3.3,1.7-4.3l1.5-1.1c0.4-0.3,0.7-0.8,0.8-1.3l0.3-1.8c0.3-1.6,1.6-2.9,3.2-3.3l1.9-0.4
			c0.5-0.1,1-0.4,1.3-0.9l1-1.6c0.9-1.4,2.6-2.1,4.2-1.8l1.9,0.3c0.5,0.1,1.1,0,1.5-0.3l0,0l1.6-1.1c1.4-0.9,3.2-1,4.6-0.1l1.6,1
			c0.5,0.3,1,0.4,1.5,0.3l1.9-0.4c1.6-0.4,3.3,0.3,4.3,1.7l1.1,1.5c0.3,0.4,0.8,0.7,1.3,0.8l1.9,0.3c1.7,0.3,3,1.6,3.3,3.2l0.4,1.8
			c0.1,0.5,0.4,1,0.9,1.3l1.6,1c1.4,0.9,2.2,2.6,1.8,4.2l-0.3,1.8c-0.1,0.5,0,1.1,0.3,1.5l1.1,1.6c1,1.4,1,3.2,0.1,4.6l-1,1.6
			c-0.3,0.4-0.4,1-0.3,1.5l0.4,1.8c0.4,1.6-0.3,3.3-1.7,4.3l-1.5,1.1c-0.4,0.3-0.7,0.8-0.8,1.3L397,88c-0.3,1.6-1.6,2.9-3.2,3.3
			l-1.9,0.4c-0.5,0.1-1,0.4-1.3,0.9l-1,1.6c-0.9,1.4-2.6,2.1-4.2,1.8l-1.9-0.3c-0.5-0.1-1.1,0-1.5,0.3l-1.6,1.1
			C379.7,97.6,378.9,97.8,378,97.8z M373.2,93.7c0.8,0,1.6,0.2,2.2,0.7l1.6,1c0.7,0.4,1.6,0.4,2.2,0l1.6-1.1c0.9-0.6,2-0.9,3.1-0.7
			l1.9,0.3c0.8,0.1,1.6-0.2,2.1-0.9l1-1.6c0.6-0.9,1.5-1.6,2.6-1.8l1.9-0.4c0.8-0.2,1.4-0.8,1.6-1.6l0.3-1.8c0.2-1.1,0.8-2,1.7-2.7
			l1.5-1.1c0.7-0.5,1-1.3,0.8-2.1l-0.4-1.8c-0.2-1.1,0-2.2,0.6-3.1l1-1.6c0.4-0.7,0.4-1.6,0-2.3l-1.1-1.5c-0.6-0.9-0.9-2-0.7-3.1
			l0.3-1.8c0.1-0.8-0.2-1.6-0.9-2.1l-1.6-1c-0.9-0.6-1.6-1.5-1.8-2.6l-0.4-1.8c-0.2-0.8-0.8-1.4-1.6-1.6l-1.9-0.3
			c-1.1-0.2-2-0.8-2.7-1.7l-1.1-1.5c-0.5-0.7-1.3-1-2.1-0.8l-1.9,0.4c-1.1,0.2-2.2,0-3.1-0.6l-1.6-1c-0.7-0.4-1.6-0.4-2.2,0
			l-1.6,1.1c-0.9,0.6-2,0.9-3.1,0.7l-1.9-0.3c-0.8-0.1-1.6,0.2-2.1,0.9l-1,1.6c-0.6,0.9-1.5,1.6-2.6,1.8l-1.9,0.4
			c-0.8,0.2-1.4,0.8-1.6,1.6l-0.3,1.8c-0.2,1.1-0.8,2-1.7,2.7l-1.5,1.1c-0.7,0.5-1,1.3-0.8,2.1l0.4,1.8c0.2,1.1,0,2.2-0.6,3.1
			l-1,1.6c-0.4,0.7-0.4,1.6,0,2.3l1.1,1.5c0.6,0.9,0.9,2,0.7,3.1l-0.3,1.8c-0.1,0.8,0.2,1.6,0.9,2.1l1.6,1c0.9,0.6,1.6,1.5,1.8,2.6
			l0.4,1.8c0.2,0.8,0.8,1.4,1.6,1.6l1.9,0.3c1.1,0.2,2,0.8,2.7,1.7l1.1,1.5c0.5,0.7,1.3,1,2.1,0.8l1.9-0.4
			C372.5,93.8,372.9,93.7,373.2,93.7z"/>
	</g>
	<g id="XMLID_84_">
		
			<linearGradient id="XMLID_217_" gradientUnits="userSpaceOnUse" x1="352.8167" y1="127.2383" x2="403.8341" y2="127.2383" gradientTransform="matrix(1 0 0 -1 0 200)">
			<stop  offset="0" style="stop-color:#EF4547"/>
			<stop  offset="1" style="stop-color:#F9843B"/>
		</linearGradient>
		<path id="XMLID_85_" class="st28" d="M371.8,85.2c-0.2,0-0.3,0-0.5-0.1c-0.5-0.3-0.7-0.9-0.5-1.4l11.4-22.8
			c0.3-0.5,0.9-0.7,1.4-0.5c0.5,0.3,0.7,0.9,0.5,1.4l-11.4,22.8C372.5,85,372.2,85.2,371.8,85.2z"/>
	</g>
	<g id="XMLID_82_">
		
			<linearGradient id="XMLID_218_" gradientUnits="userSpaceOnUse" x1="352.8167" y1="132.4" x2="403.8341" y2="132.4" gradientTransform="matrix(1 0 0 -1 0 200)">
			<stop  offset="0" style="stop-color:#EF4547"/>
			<stop  offset="1" style="stop-color:#F9843B"/>
		</linearGradient>
		<path id="XMLID_83_" class="st29" d="M370.8,73.8c-2.5,0-4.1-1.4-4.1-3.6V65c0-2.2,1.7-3.6,4.1-3.6c2.4,0,4.1,1.4,4.1,3.6v5.3
			C374.9,72.4,373.2,73.8,370.8,73.8z M370.8,63.5c-0.6,0-2,0.1-2,1.5v5.3c0,1.3,1.4,1.5,2,1.5c0.6,0,2-0.1,2-1.5V65
			C372.8,63.6,371.4,63.5,370.8,63.5z"/>
	</g>
	<g id="XMLID_80_">
		
			<linearGradient id="XMLID_219_" gradientUnits="userSpaceOnUse" x1="352.8167" y1="122.05" x2="403.8341" y2="122.05" gradientTransform="matrix(1 0 0 -1 0 200)">
			<stop  offset="0" style="stop-color:#EF4547"/>
			<stop  offset="1" style="stop-color:#F9843B"/>
		</linearGradient>
		<path id="XMLID_81_" class="st30" d="M384,84.2c-2.5,0-4.1-1.4-4.1-3.6v-5.3c0-2.2,1.7-3.6,4.1-3.6c2.5,0,4.1,1.4,4.1,3.6v5.3
			C388.3,82.7,386.5,84.2,384,84.2z M384,73.8c-0.6,0-2,0.1-2,1.5v5.3c0,1.3,1.4,1.5,2,1.5c0.6,0,2-0.1,2-1.5v-5.3
			C386.2,74,384.7,73.8,384,73.8z"/>
	</g>
</g>
<g id="XMLID_74_">
	<g id="XMLID_77_">
		
			<linearGradient id="XMLID_220_" gradientUnits="userSpaceOnUse" x1="149.8167" y1="59.9" x2="200.8178" y2="59.9" gradientTransform="matrix(1 0 0 -1 0 200)">
			<stop  offset="0" style="stop-color:#EF4547"/>
			<stop  offset="1" style="stop-color:#F9843B"/>
		</linearGradient>
		<path id="XMLID_78_" class="st31" d="M174.1,149.4c-5.1,0-9.3-4.2-9.3-9.3c0-5.1,4.2-9.3,9.3-9.3s9.3,4.2,9.3,9.3
			C183.4,145.2,179.2,149.4,174.1,149.4z M174.1,133c-4,0-7.2,3.2-7.2,7.2s3.2,7.2,7.2,7.2s7.2-3.2,7.2-7.2S178.1,133,174.1,133z"/>
	</g>
	<g id="XMLID_75_">
		
			<linearGradient id="XMLID_221_" gradientUnits="userSpaceOnUse" x1="149.8167" y1="59.7" x2="200.8178" y2="59.7" gradientTransform="matrix(1 0 0 -1 0 200)">
			<stop  offset="0" style="stop-color:#EF4547"/>
			<stop  offset="1" style="stop-color:#F9843B"/>
		</linearGradient>
		<path id="XMLID_76_" class="st32" d="M177,164.9h-5.7c-1.5,0-2.7-1.2-2.7-2.7v-3.4c-0.6-0.2-1.1-0.3-1.7-0.6
			c-0.7-0.3-1.3-0.6-2-0.9l-2.4,2.4c-1,1-2.8,1-3.9,0l-4-4c-0.5-0.5-0.8-1.2-0.8-1.9c0-0.7,0.3-1.4,0.8-1.9l2.4-2.4
			c-0.3-0.5-0.5-1-0.8-1.6c-0.3-0.7-0.5-1.3-0.7-2h-3.4c-1.5,0-2.7-1.2-2.7-2.7v-5.7c0-1.5,1.2-2.7,2.7-2.7h3.4
			c0.2-0.6,0.4-1.1,0.6-1.7c0.2-0.5,0.6-1.3,1-2l-2.4-2.4c-0.5-0.5-0.8-1.2-0.8-1.9c0-0.7,0.3-1.4,0.8-1.9l4-4c1-1,2.8-1,3.9,0
			l2.4,2.4c0.6-0.3,1.2-0.6,2-0.9c0.6-0.2,1.1-0.4,1.7-0.6v-3.4c0-1.5,1.2-2.7,2.7-2.7h5.7c1.5,0,2.7,1.2,2.7,2.7v3.4
			c0.7,0.2,1.3,0.4,2,0.7c0.6,0.3,1.1,0.5,1.6,0.8l2.4-2.4c1-1,2.8-1,3.9,0l4,4c0.5,0.5,0.8,1.2,0.8,1.9s-0.3,1.4-0.8,1.9l-2.4,2.4
			c0.3,0.6,0.6,1.2,0.9,2c0.2,0.6,0.4,1.1,0.6,1.7h3.4c1.5,0,2.7,1.2,2.7,2.7v5.7c0,1.5-1.2,2.7-2.7,2.7h-3.4
			c-0.2,0.6-0.4,1.1-0.7,1.8c-0.3,0.7-0.5,1.1-0.8,1.7l2.4,2.4c0.5,0.5,0.8,1.2,0.8,1.9s-0.3,1.4-0.8,1.9l-4,4c-1,1-2.8,1-3.9,0
			l-2.4-2.4c-0.5,0.3-1,0.5-1.6,0.8c-0.7,0.3-1.3,0.5-2,0.7v3.4C179.8,163.7,178.5,164.9,177,164.9z M164.6,154.7l0.7,0.4
			c0.8,0.5,1.5,0.8,2.4,1.2c0.8,0.3,1.4,0.5,2.2,0.7l0.8,0.2v5c0,0.3,0.3,0.6,0.6,0.6h5.7c0.3,0,0.6-0.3,0.6-0.6v-5l0.8-0.2
			c0.9-0.2,1.6-0.5,2.5-0.9c0.8-0.3,1.4-0.6,2.1-1.1l0.7-0.4l3.5,3.5c0.2,0.2,0.6,0.2,0.9,0l4-4c0.1-0.1,0.2-0.3,0.2-0.4
			c0-0.2-0.1-0.3-0.2-0.4l-3.6-3.6l0.4-0.7c0.5-0.8,0.7-1.3,1.1-2.2c0.4-0.8,0.5-1.4,0.8-2.3l0.2-0.8h5c0.3,0,0.6-0.3,0.6-0.6v-5.7
			c0-0.3-0.3-0.6-0.6-0.6h-5l-0.2-0.8c-0.2-0.8-0.4-1.4-0.7-2.2c-0.4-0.9-0.7-1.6-1.2-2.4l-0.4-0.7l3.6-3.6c0.1-0.1,0.2-0.3,0.2-0.4
			s-0.1-0.3-0.2-0.4l-4-4c-0.2-0.2-0.6-0.2-0.9,0l-3.5,3.5l-0.7-0.4c-0.7-0.4-1.3-0.7-2.1-1.1c-0.9-0.4-1.6-0.6-2.5-0.9l-0.8-0.2v-5
			c0-0.3-0.3-0.6-0.6-0.6h-5.7c-0.3,0-0.6,0.3-0.6,0.6v5l-0.8,0.2c-0.8,0.2-1.4,0.4-2.2,0.7c-0.9,0.4-1.6,0.7-2.4,1.2l-0.7,0.4
			l-3.6-3.6c-0.2-0.2-0.6-0.2-0.9,0l-4,4c-0.1,0.1-0.2,0.3-0.2,0.4s0.1,0.3,0.2,0.4l3.5,3.5l-0.4,0.7c-0.5,0.8-1,1.9-1.2,2.5
			c-0.3,0.8-0.5,1.5-0.7,2.2l-0.2,0.8h-5c-0.3,0-0.6,0.3-0.6,0.6v5.7c0,0.3,0.3,0.6,0.6,0.6h5l0.2,0.8c0.2,0.9,0.5,1.6,0.9,2.5l0,0
			c0.3,0.8,0.6,1.4,1.1,2.1l0.4,0.7l-3.5,3.5c-0.1,0.1-0.2,0.3-0.2,0.4s0.1,0.3,0.2,0.4l4,4c0.2,0.2,0.6,0.2,0.9,0L164.6,154.7z"/>
	</g>
</g>
<g id="XMLID_71_">
	
		<linearGradient id="XMLID_222_" gradientUnits="userSpaceOnUse" x1="218.15" y1="57.6" x2="269.8167" y2="57.6" gradientTransform="matrix(1 0 0 -1 0 200)">
		<stop  offset="0" style="stop-color:#EF4547"/>
		<stop  offset="1" style="stop-color:#F9843B"/>
	</linearGradient>
	<path id="XMLID_73_" class="st33" d="M237.6,163.4c-0.2,0-0.4,0-0.5-0.1c-0.3-0.2-0.5-0.6-0.5-0.9v-20.3l-18.6-18.8
		c-0.3-0.3-0.4-0.8-0.2-1.2c0.2-0.4,0.6-0.7,1-0.7H266c0.4,0,0.8,0.3,1,0.7c0.2,0.4,0.1,0.9-0.2,1.2l-18.8,19v15
		c0,0.4-0.2,0.8-0.6,0.9l-9.1,5.2C237.9,163.3,237.8,163.4,237.6,163.4z M221.3,123.4l17.1,17.3c0.2,0.2,0.3,0.5,0.3,0.8v18.9
		l6.9-3.9v-14.8c0-0.3,0.1-0.6,0.3-0.8l17.3-17.5H221.3z"/>
</g>
<g id="XMLID_64_">
	<g id="XMLID_69_">
		
			<linearGradient id="XMLID_223_" gradientUnits="userSpaceOnUse" x1="287.15" y1="58.9" x2="334.9575" y2="58.9" gradientTransform="matrix(1 0 0 -1 0 200)">
			<stop  offset="0" style="stop-color:#EF4547"/>
			<stop  offset="1" style="stop-color:#F9843B"/>
		</linearGradient>
		<path id="XMLID_70_" class="st34" d="M310.3,165.7c-13.6,0-24.6-11-24.6-24.6s11-24.6,24.6-24.6c13.6,0,24.6,11,24.6,24.6
			S323.9,165.7,310.3,165.7z M310.3,118.5c-12.5,0-22.6,10.1-22.6,22.6s10.1,22.6,22.6,22.6s22.6-10.1,22.6-22.6
			C332.9,128.7,322.8,118.5,310.3,118.5z"/>
	</g>
	<g id="XMLID_67_">
		
			<linearGradient id="XMLID_224_" gradientUnits="userSpaceOnUse" x1="287.15" y1="65.1" x2="334.9575" y2="65.1" gradientTransform="matrix(1 0 0 -1 0 200)">
			<stop  offset="0" style="stop-color:#EF4547"/>
			<stop  offset="1" style="stop-color:#F9843B"/>
		</linearGradient>
		<path id="XMLID_68_" class="st35" d="M310.3,146.1c-6.2,0-11.2-5-11.2-11.2s5-11.2,11.2-11.2s11.2,5,11.2,11.2
			S316.5,146.1,310.3,146.1z M310.3,125.7c-5.1,0-9.2,4.1-9.2,9.2s4.1,9.2,9.2,9.2c5.1,0,9.2-4.1,9.2-9.2S315.4,125.7,310.3,125.7z"
			/>
	</g>
	<g id="XMLID_65_">
		
			<linearGradient id="XMLID_225_" gradientUnits="userSpaceOnUse" x1="287.15" y1="49.45" x2="334.9575" y2="49.45" gradientTransform="matrix(1 0 0 -1 0 200)">
			<stop  offset="0" style="stop-color:#EF4547"/>
			<stop  offset="1" style="stop-color:#F9843B"/>
		</linearGradient>
		<path id="XMLID_66_" class="st36" d="M327.2,157c-3-6.6-9.6-10.9-16.9-10.9s-13.9,4.3-16.9,10.9l-1.8-0.8
			c3.3-7.3,10.7-12.1,18.7-12.1c8.1,0,15.4,4.7,18.7,12.1L327.2,157z"/>
	</g>
</g>
<g id="XMLID_59_">
	<g id="XMLID_62_">
		
			<linearGradient id="XMLID_226_" gradientUnits="userSpaceOnUse" x1="354.8167" y1="64.5" x2="401.1608" y2="64.5" gradientTransform="matrix(1 0 0 -1 0 200)">
			<stop  offset="0" style="stop-color:#EF4547"/>
			<stop  offset="1" style="stop-color:#F9843B"/>
		</linearGradient>
		<path id="XMLID_63_" class="st37" d="M372.5,153.1c-9.7,0-17.6-7.9-17.6-17.6s7.9-17.6,17.6-17.6s17.6,7.9,17.6,17.6
			S382.3,153.1,372.5,153.1z M372.5,120.4c-8.3,0-15.1,6.8-15.1,15.1s6.8,15.1,15.1,15.1c8.3,0,15.1-6.8,15.1-15.1
			C387.5,127.1,380.9,120.4,372.5,120.4z"/>
	</g>
	<g id="XMLID_60_">
		
			<linearGradient id="XMLID_227_" gradientUnits="userSpaceOnUse" x1="354.8167" y1="44.5144" x2="401.1608" y2="44.5144" gradientTransform="matrix(1 0 0 -1 0 200)">
			<stop  offset="0" style="stop-color:#EF4547"/>
			<stop  offset="1" style="stop-color:#F9843B"/>
		</linearGradient>
		<path id="XMLID_61_" class="st38" d="M399.5,164.8c-0.3,0-0.7-0.1-0.9-0.4l-14.9-16.1c-0.5-0.5-0.4-1.3,0.1-1.8s1.3-0.4,1.8,0.1
			l14.9,16.1c0.5,0.5,0.4,1.3-0.1,1.8C400.2,164.7,399.8,164.8,399.5,164.8z"/>
	</g>
</g>
<g id="XMLID_54_">
	
		<linearGradient id="XMLID_228_" gradientUnits="userSpaceOnUse" x1="422.8167" y1="60" x2="470.1547" y2="60" gradientTransform="matrix(1 0 0 -1 0 200)">
		<stop  offset="0" style="stop-color:#EF4547"/>
		<stop  offset="1" style="stop-color:#F9843B"/>
	</linearGradient>
	<path id="XMLID_58_" class="st39" d="M452.8,127.4V118c0-2.1-1.7-3.8-3.8-3.8h-22.3c-2.1,0-3.8,1.7-3.8,3.8v44
		c0,2.1,1.7,3.8,3.8,3.8H449c2.1,0,3.8-1.7,3.8-3.8v-10.4h-2.4v7.5h-25.1V120h25.1v7.5h2.4V127.4z M437.9,160.4
		c0.9,0,1.6,0.7,1.6,1.6s-0.7,1.6-1.6,1.6s-1.6-0.7-1.6-1.6S437,160.4,437.9,160.4z M441.9,117.4c0,0.2-0.1,0.3-0.3,0.3h-7.4
		c-0.2,0-0.3-0.1-0.3-0.3v-0.1c0-0.2,0.1-0.3,0.3-0.3h7.4c0.2,0,0.3,0.1,0.3,0.3V117.4L441.9,117.4z"/>
	
		<linearGradient id="XMLID_229_" gradientUnits="userSpaceOnUse" x1="422.8167" y1="62.75" x2="470.1547" y2="62.75" gradientTransform="matrix(1 0 0 -1 0 200)">
		<stop  offset="0" style="stop-color:#EF4547"/>
		<stop  offset="1" style="stop-color:#F9843B"/>
	</linearGradient>
	<polygon id="XMLID_57_" class="st40" points="467.3,124.4 465.6,124.4 464.3,124.4 459.3,147.1 439.4,147.1 436.1,132.6 
		459.3,132.6 460,129.6 432.5,129.6 437,150.1 458.7,150.1 461.6,150.1 466.7,127.3 471,127.3 471,124.4 	"/>
	
		<linearGradient id="XMLID_230_" gradientUnits="userSpaceOnUse" x1="422.8167" y1="46.1" x2="470.1547" y2="46.1" gradientTransform="matrix(1 0 0 -1 0 200)">
		<stop  offset="0" style="stop-color:#EF4547"/>
		<stop  offset="1" style="stop-color:#F9843B"/>
	</linearGradient>
	<circle id="XMLID_56_" class="st41" cx="442.3" cy="153.9" r="2.8"/>
	
		<linearGradient id="XMLID_231_" gradientUnits="userSpaceOnUse" x1="422.8167" y1="46.1" x2="470.1547" y2="46.1" gradientTransform="matrix(1 0 0 -1 0 200)">
		<stop  offset="0" style="stop-color:#EF4547"/>
		<stop  offset="1" style="stop-color:#F9843B"/>
	</linearGradient>
	<circle id="XMLID_55_" class="st42" cx="456.7" cy="153.9" r="2.8"/>
</g>
<linearGradient id="XMLID_232_" gradientUnits="userSpaceOnUse" x1="431.05" y1="127.2" x2="457.75" y2="127.2" gradientTransform="matrix(1 0 0 -1 0 200)">
	<stop  offset="0" style="stop-color:#EF4547"/>
	<stop  offset="1" style="stop-color:#F9843B"/>
</linearGradient>
<polygon id="XMLID_13_" class="st43" points="435.5,72.8 457.8,50.5 455.6,48.3 431.1,72.8 455.6,97.3 457.8,95.1 "/>
</svg>
