<svg width="22" height="22" viewBox="0 0 22 22" version="1.1" xmlns="http://www.w3.org/2000/svg" xmlns:xlink="http://www.w3.org/1999/xlink">
<title>OPT_ICON</title>
<desc>Created using Figma</desc>
<g id="Canvas" transform="translate(-791 -237)">
<g id="OPT_ICON">
<g id="Group">
<g id="Group">
<g id="Group">
<g id="Vector">
<use xlink:href="#path0_fill" transform="translate(791 237)" fill="#FFFFFF"/>
</g>
</g>
</g>
</g>
</g>
</g>
<defs>
<path id="path0_fill" d="M 21.8 20.8667L 16.4667 15.5333C 17.9333 13.8667 18.8 11.7333 18.8 9.4C 18.7333 4.2 14.5333 0 9.4 0C 4.2 0 0 4.2 0 9.4C 0 14.6 4.2 18.8 9.4 18.8C 11.7333 18.8 13.9333 17.9333 15.5333 16.4667L 20.8667 21.8C 21 21.9333 21.1333 22 21.3333 22C 21.4667 22 21.6667 21.9333 21.8 21.8C 22.0667 21.5333 22.0667 21.1333 21.8 20.8667ZM 1.33333 9.4C 1.33333 4.93333 4.93333 1.33333 9.4 1.33333C 13.8667 1.33333 17.4667 4.93333 17.4667 9.4C 17.4667 13.8667 13.8667 17.4667 9.4 17.4667C 4.93333 17.4667 1.33333 13.8667 1.33333 9.4Z"/>
</defs>
</svg>
