<svg width="22" height="22" viewBox="0 0 22 22" version="1.1" xmlns="http://www.w3.org/2000/svg" xmlns:xlink="http://www.w3.org/1999/xlink">
<title>OPT_ICON</title>
<desc>Created using Figma</desc>
<g id="Canvas" transform="translate(-921 -237)">
<g id="OPT_ICON">
<g id="Group">
<g id="Group">
<g id="Group">
<g id="Vector">
<use xlink:href="#path0_fill" transform="translate(921 237)" fill="#FFFFFF"/>
</g>
</g>
</g>
</g>
<g id="Group">
<g id="Group">
<g id="Vector">
<use xlink:href="#path1_fill" transform="translate(927.261 243.273)" fill="#FFFFFF"/>
</g>
</g>
</g>
</g>
</g>
<defs>
<path id="path0_fill" d="M 20.9855 8.67969L 19.431 8.42188C 19.2583 7.90625 19.0424 7.39062 18.8265 6.91797L 19.7333 5.62891C 20.1219 5.07031 20.0787 4.33984 19.6037 3.86719L 18.222 2.49219C 17.9197 2.27734 17.6174 2.14844 17.2288 2.14844C 16.9266 2.14844 16.6675 2.23438 16.4516 2.40625L 15.1562 3.30859C 14.638 3.05078 14.1199 2.83594 13.6017 2.66406L 13.3426 1.11719C 13.2131 0.472656 12.6517 0 12.004 0L 10.0609 0C 9.37006 0 8.80872 0.472656 8.72236 1.11719L 8.46328 2.66406C 7.94512 2.83594 7.42696 3.05078 6.95198 3.30859L 5.69976 2.40625C 5.44068 2.23438 5.13842 2.14844 4.87934 2.14844C 4.49072 2.14844 4.14528 2.32031 3.8862 2.57812L 2.50444 3.95312C 2.02946 4.42578 1.98628 5.15625 2.3749 5.71484L 3.28168 7.00391C 3.0226 7.47656 2.8067 7.99219 2.67716 8.50781L 1.12268 8.76562C 0.47498 8.85156 0 9.41016 0 10.0977L 0 12.0312C 0 12.7188 0.47498 13.2773 1.12268 13.3633L 2.67716 13.6211C 2.84988 14.1367 3.06578 14.6523 3.32486 15.125L 2.41808 16.3711C 2.02946 16.9297 2.07264 17.6602 2.54762 18.1328L 3.92938 19.5078C 4.18846 19.7656 4.5339 19.8945 4.87934 19.8945C 5.1816 19.8945 5.44068 19.8086 5.65658 19.6367L 6.95198 18.7344C 7.42696 18.9922 7.90194 19.1641 8.4201 19.3359L 8.67918 20.8828C 8.80872 21.5273 9.37006 22 10.0178 22L 11.9609 22C 12.6517 22 13.2131 21.5273 13.2994 20.8828L 13.5585 19.3359C 14.0767 19.1641 14.5948 18.9492 15.0698 18.7344L 16.3652 19.6367C 16.5811 19.8086 16.8834 19.8945 17.1425 19.8945C 17.4879 19.8945 17.8333 19.7656 18.0924 19.5078L 19.4742 18.1328C 19.9492 17.6602 19.9923 16.9297 19.6037 16.3711L 18.6969 15.082C 18.956 14.6094 19.1719 14.0938 19.3015 13.5781L 20.8559 13.3203C 21.5036 13.1914 21.9786 12.6328 21.9786 11.9883L 21.9786 10.0547C 22.1082 9.36719 21.6332 8.80859 20.9855 8.67969ZM 20.8991 11.9883C 20.8991 12.0312 20.8559 12.1172 20.8128 12.1172L 18.8697 12.418C 18.6106 12.4609 18.4379 12.6328 18.3515 12.8906C 18.1788 13.5781 17.9197 14.2227 17.5311 14.8242C 17.4015 15.0391 17.4015 15.2969 17.5743 15.5117L 18.6969 17.1016C 18.7401 17.1445 18.7401 17.2305 18.6969 17.2734L 17.3152 18.6484C 17.272 18.6914 17.272 18.6914 17.2288 18.6914C 17.1856 18.6914 17.1856 18.6914 17.1425 18.6484L 15.5448 17.4883C 15.3289 17.3594 15.0698 17.3164 14.8539 17.4453C 14.2494 17.7891 13.6017 18.0898 12.9108 18.2617C 12.6517 18.3047 12.479 18.5195 12.4358 18.7773L 12.0904 20.7109C 12.0904 20.7539 12.0472 20.7969 11.9609 20.7969L 10.0178 20.7969C 9.97458 20.7969 9.88822 20.7539 9.88822 20.7109L 9.58596 18.7773C 9.54278 18.5195 9.37006 18.3477 9.11098 18.2617C 8.46328 18.0898 7.81558 17.832 7.21106 17.4883C 7.1247 17.4453 6.99516 17.4023 6.9088 17.4023C 6.77926 17.4023 6.64972 17.4453 6.56336 17.5312L 4.9657 18.6914C 4.92252 18.6914 4.92252 18.7344 4.87934 18.7344C 4.87934 18.7344 4.83616 18.7344 4.79298 18.6914L 3.4544 17.2734C 3.41122 17.2305 3.41122 17.1875 3.4544 17.1016L 4.57708 15.5117C 4.70662 15.2969 4.7498 15.0391 4.62026 14.8242C 4.27482 14.2227 3.97256 13.5781 3.79984 12.8906C 3.75666 12.6758 3.54076 12.4609 3.28168 12.418L 1.33858 12.0742C 1.2954 12.0742 1.25222 12.0312 1.25222 11.9453L 1.25222 10.0117C 1.25222 9.96875 1.2954 9.88281 1.33858 9.88281L 3.28168 9.58203C 3.54076 9.53906 3.71348 9.36719 3.79984 9.10938C 3.97256 8.42188 4.23164 7.77734 4.57708 7.17578C 4.70662 6.96094 4.70662 6.70312 4.5339 6.48828L 3.36804 4.89844C 3.32486 4.85547 3.32486 4.76953 3.36804 4.72656L 4.79298 3.4375C 4.83616 3.39453 4.83616 3.39453 4.87934 3.39453C 4.92252 3.39453 4.92252 3.39453 4.9657 3.4375L 6.56336 4.55469C 6.77926 4.68359 7.03834 4.72656 7.25424 4.59766C 7.85876 4.25391 8.50646 3.95312 9.19734 3.78125C 9.41324 3.73828 9.62914 3.52344 9.67232 3.26562L 9.9314 1.33203C 9.9314 1.28906 9.97458 1.24609 10.0609 1.24609L 12.004 1.24609C 12.0472 1.24609 12.1336 1.28906 12.1336 1.33203L 12.4358 3.26562C 12.479 3.52344 12.6517 3.69531 12.9108 3.78125C 13.6017 3.95312 14.2926 4.21094 14.8971 4.59766C 15.113 4.72656 15.3721 4.72656 15.588 4.55469L 17.1856 3.39453C 17.2288 3.39453 17.2288 3.35156 17.272 3.35156C 17.272 3.35156 17.3152 3.35156 17.3584 3.39453L 18.7401 4.76953C 18.7833 4.8125 18.7833 4.85547 18.7401 4.94141L 17.6174 6.53125C 17.4879 6.74609 17.4447 7.00391 17.5743 7.21875C 17.9197 7.82031 18.222 8.46484 18.3947 9.15234C 18.4379 9.41016 18.6538 9.58203 18.9128 9.625L 20.8559 9.96875C 20.8991 9.96875 20.9423 10.0117 20.9423 10.0977L 20.8991 11.9883Z"/>
<path id="path1_fill" d="M 4.79298 1.63913e-07C 2.159 1.63913e-07 -7.67031e-16 2.14844 -7.67031e-16 4.76953C -7.67031e-16 7.39062 2.159 9.53906 4.79298 9.53906C 7.42696 9.53906 9.58596 7.39062 9.58596 4.76953C 9.58596 2.10547 7.42696 1.63913e-07 4.79298 1.63913e-07ZM 4.79298 8.25C 2.84988 8.25 1.25222 6.66016 1.25222 4.72656C 1.25222 2.79297 2.84988 1.20312 4.79298 1.20312C 6.73608 1.20312 8.33374 2.79297 8.33374 4.72656C 8.33374 6.66016 6.73608 8.25 4.79298 8.25Z"/>
</defs>
</svg>
