<svg width="22" height="27" viewBox="0 0 22 27" version="1.1" xmlns="http://www.w3.org/2000/svg" xmlns:xlink="http://www.w3.org/1999/xlink">
<title>Vector</title>
<desc>Created using Figma</desc>
<g id="Canvas" transform="translate(-663 -233)">
<g id="Vector">
<use xlink:href="#path0_fill" transform="translate(663 233)" fill="#FFFFFF"/>
</g>
</g>
<defs>
<path id="path0_fill" d="M 22 6.71L 22 23.87C 22 25.3 20.8274 26.4 19.4315 26.4L 7.64975 26.4C 6.25381 26.4 5.08122 25.245 5.08122 23.87L 5.08122 12.76C 5.47208 12.815 5.80711 12.87 6.19797 12.87C 6.47716 12.87 6.75634 12.87 6.9797 12.815L 6.9797 23.925C 6.9797 24.255 7.25888 24.585 7.64975 24.585L 19.4315 24.585C 19.7665 24.585 20.1015 24.31 20.1015 23.925L 20.1015 6.71C 20.1015 6.38 19.8223 6.05 19.4315 6.05L 13.066 6.05C 13.066 5.39 12.9543 4.73 12.7868 4.125L 19.4873 4.125C 20.8832 4.18 22 5.335 22 6.71ZM 6.08629 11.99C 2.73604 11.99 0 9.295 0 5.995C 0 2.695 2.73604 0 6.08629 0C 9.43655 0 12.1726 2.695 12.1726 5.995C 12.1726 9.295 9.43655 11.99 6.08629 11.99ZM 6.08629 10.725C 8.71066 10.725 10.8883 8.58 10.8883 5.995C 10.8883 3.41 8.71066 1.265 6.08629 1.265C 3.46193 1.265 1.28426 3.41 1.28426 5.995C 1.28426 8.635 3.46193 10.725 6.08629 10.725ZM 9.77157 6.655C 10.1066 6.655 10.4416 6.38 10.4416 5.995C 10.4416 5.61 10.1624 5.335 9.77157 5.335L 6.75635 5.335L 6.75635 2.86C 6.75635 2.53 6.47716 2.2 6.08629 2.2C 5.75127 2.2 5.41624 2.475 5.41624 2.86L 5.41624 5.995C 5.41624 6.325 5.69543 6.655 6.08629 6.655L 9.77157 6.655ZM 17.198 11.77L 10.2183 11.77C 9.88325 11.77 9.54822 12.045 9.54822 12.43C 9.54822 12.76 9.82741 13.09 10.2183 13.09L 17.198 13.09C 17.533 13.09 17.868 12.815 17.868 12.43C 17.868 12.1 17.533 11.77 17.198 11.77ZM 17.198 15.675L 10.2183 15.675C 9.88325 15.675 9.54822 15.95 9.54822 16.335C 9.54822 16.665 9.82741 16.995 10.2183 16.995L 17.198 16.995C 17.533 16.995 17.868 16.72 17.868 16.335C 17.868 15.95 17.5888 15.675 17.198 15.675ZM 17.198 19.69L 10.2183 19.69C 9.88325 19.69 9.54822 19.965 9.54822 20.35C 9.54822 20.68 9.82741 21.01 10.2183 21.01L 17.198 21.01C 17.533 21.01 17.868 20.735 17.868 20.35C 17.868 19.965 17.5888 19.69 17.198 19.69Z"/>
</defs>
</svg>
