<svg width="22" height="22" viewBox="0 0 22 22" version="1.1" xmlns="http://www.w3.org/2000/svg" xmlns:xlink="http://www.w3.org/1999/xlink">
<title>OPT_ICON</title>
<desc>Created using Figma</desc>
<g id="Canvas" transform="translate(-728 -237)">
<g id="OPT_ICON">
<g id="Group">
<g id="Group">
<g id="Group">
<g id="Vector">
<use xlink:href="#path0_fill" transform="translate(728 237)" fill="#FFFFFF"/>
</g>
</g>
</g>
<g id="Group">
<g id="Group">
<g id="Vector">
<use xlink:href="#path1_fill" transform="translate(745.729 240.365)" fill="#FFFFFF"/>
</g>
</g>
</g>
</g>
<g id="Group">
<g id="Vector">
<use xlink:href="#path2_fill" transform="translate(730.847 245.153)" fill="#FFFFFF"/>
</g>
</g>
<g id="Group">
<g id="Vector">
<use xlink:href="#path3_fill" transform="translate(730.847 250.912)" fill="#FFFFFF"/>
</g>
</g>
<g id="Group">
<g id="Vector">
<use xlink:href="#path4_fill" transform="translate(738.029 245.153)" fill="#FFFFFF"/>
</g>
</g>
<g id="Group">
<g id="Vector">
<use xlink:href="#path5_fill" transform="translate(736.606 248)" fill="#FFFFFF"/>
</g>
</g>
<g id="Group">
<g id="Vector">
<use xlink:href="#path6_fill" transform="translate(738.029 250.847)" fill="#FFFFFF"/>
</g>
</g>
<g id="Group">
<g id="Vector">
<use xlink:href="#path7_fill" transform="translate(736.606 253.759)" fill="#FFFFFF"/>
</g>
</g>
</g>
</g>
<defs>
<path id="path0_fill" d="M 1.42353 5.04706C 1.42353 4.65882 1.74706 4.33529 2.13529 4.33529L 3.10588 4.33529L 3.10588 5.04706C 3.10588 5.43529 3.42941 5.75882 3.81765 5.75882L 12.4235 5.75882C 12.8118 5.75882 13.1353 5.43529 13.1353 5.04706L 13.1353 4.33529L 14.1059 4.33529C 14.4941 4.33529 14.8176 4.65882 14.8176 5.04706L 14.8176 19.8647C 14.8176 20.2529 14.4941 20.5765 14.1059 20.5765L 2.13529 20.5765C 1.74706 20.5765 1.42353 20.2529 1.42353 19.8647L 1.42353 5.04706ZM 4.52941 3.55882C 4.52941 3.17059 4.85294 2.84706 5.24118 2.84706L 6.66471 2.84706C 7.05294 2.84706 7.37647 2.52353 7.37647 2.13529C 7.37647 1.74706 7.7 1.42353 8.08823 1.42353C 8.47647 1.42353 8.8 1.74706 8.8 2.13529C 8.8 2.52353 9.12353 2.84706 9.51176 2.84706L 11 2.84706C 11.3882 2.84706 11.7118 3.17059 11.7118 3.55882L 11.7118 4.27059L 4.52941 4.27059L 4.52941 3.55882ZM 0 19.8647C 0 21.0294 0.970588 22 2.13529 22L 14.1059 22C 15.2706 22 16.2412 21.0294 16.2412 19.8647L 16.2412 5.04706C 16.2412 3.88235 15.2706 2.91176 14.1059 2.91176L 13.0059 2.91176C 12.6824 2.07059 11.9059 1.48824 11 1.48824L 10.1588 1.48824C 9.83529 0.582353 9.05882 0 8.15294 0C 7.24706 0 6.40588 0.582353 6.14706 1.42353L 5.24118 1.42353C 4.33529 1.42353 3.55882 2.00588 3.23529 2.84706L 2.13529 2.84706C 0.970588 2.84706 0 3.81765 0 5.04706L 0 19.8647Z"/>
<path id="path1_fill" d="M 2.84706 5.69412L 1.42353 5.69412L 1.42353 2.13529C 1.42353 1.74706 1.74706 1.42353 2.13529 1.42353C 2.52353 1.42353 2.84706 1.74706 2.84706 2.13529L 2.84706 5.69412ZM 2.84706 12.8765L 1.42353 12.8765L 1.42353 7.11765L 2.84706 7.11765L 2.84706 12.8765ZM 2.84706 14.6882C 2.84706 14.8824 2.84706 14.8824 2.13529 16.3059C 1.42353 14.9471 1.42353 14.9471 1.42353 14.6882L 1.42353 14.3L 2.84706 14.3L 2.84706 14.6882ZM 2.13529 -1.23417e-07C 0.970589 -1.23417e-07 -2.46833e-07 0.970588 -2.46833e-07 2.13529L -2.46833e-07 14.6882C -2.46833e-07 15.3353 0.129412 15.4647 1.48824 18.2471C 1.74706 18.7647 2.52353 18.7647 2.78235 18.2471C 4.14118 15.4647 4.27059 15.4 4.27059 14.6882L 4.27059 2.13529C 4.27059 0.970588 3.3 -1.23417e-07 2.13529 -1.23417e-07Z"/>
<path id="path2_fill" d="M 1.68235 4.07647C 1.94118 4.33529 2.39412 4.33529 2.71765 4.07647L 5.56471 1.22941C 5.82353 0.970588 5.82353 0.517647 5.56471 0.194117C 5.30588 -0.0647061 4.85294 -0.0647061 4.52941 0.194117L 2.13529 2.58824L 1.22941 1.68235C 0.970588 1.42353 0.517647 1.42353 0.194118 1.68235C -0.064706 1.94118 -0.064706 2.39412 0.194118 2.71765L 1.68235 4.07647Z"/>
<path id="path3_fill" d="M 1.68235 4.07647C 1.94118 4.33529 2.39412 4.33529 2.71765 4.07647L 5.56471 1.22941C 5.82353 0.970588 5.82353 0.517647 5.56471 0.194117C 5.30588 -0.0647064 4.85294 -0.0647064 4.52941 0.194117L 2.13529 2.58824L 1.22941 1.61765C 0.970588 1.35882 0.517647 1.35882 0.194118 1.61765C -0.064706 1.87647 -0.064706 2.32941 0.194118 2.65294L 1.68235 4.07647Z"/>
<path id="path4_fill" d="M 0.711765 1.42353L 2.65294 1.42353C 3.04118 1.42353 3.36471 1.1 3.36471 0.711765C 3.36471 0.323529 3.04118 2.46833e-07 2.65294 2.46833e-07L 0.711765 2.46833e-07C 0.32353 2.46833e-07 0 0.323529 0 0.711765C -1.14941e-15 1.1 0.32353 1.42353 0.711765 1.42353Z"/>
<path id="path5_fill" d="M 0.711764 1.42353L 4.07647 1.42353C 4.46471 1.42353 4.78824 1.1 4.78824 0.711765C 4.78824 0.32353 4.46471 2.29881e-15 4.07647 2.29881e-15L 0.711764 2.29881e-15C 0.323529 2.29881e-15 1.23417e-07 0.32353 1.23417e-07 0.711765C 1.23417e-07 1.1 0.323529 1.42353 0.711764 1.42353Z"/>
<path id="path6_fill" d="M 2.65294 -2.46833e-07L 0.711765 -2.46833e-07C 0.32353 -2.46833e-07 -1.14941e-15 0.323529 -1.14941e-15 0.711765C -1.14941e-15 1.1 0.32353 1.42353 0.711765 1.42353L 2.65294 1.42353C 3.04118 1.42353 3.36471 1.1 3.36471 0.711765C 3.36471 0.323529 3.04118 -2.46833e-07 2.65294 -2.46833e-07Z"/>
<path id="path7_fill" d="M 0.711764 1.42353L 4.07647 1.42353C 4.46471 1.42353 4.78824 1.1 4.78824 0.711765C 4.78824 0.323529 4.46471 -2.46833e-07 4.07647 -2.46833e-07L 0.711764 -2.46833e-07C 0.323529 -2.46833e-07 1.23417e-07 0.323529 1.23417e-07 0.711765C 1.23417e-07 1.1 0.323529 1.42353 0.711764 1.42353Z"/>
</defs>
</svg>
