<svg width="22" height="27" viewBox="0 0 22 27" version="1.1" xmlns="http://www.w3.org/2000/svg" xmlns:xlink="http://www.w3.org/1999/xlink">
<title>Vector</title>
<desc>Created using Figma</desc>
<g id="Canvas" transform="translate(435 -576)">
<g id="Vector">
<use xlink:href="#path0_fill" transform="translate(-435 576)" fill="#5C5C5C"/>
</g>
</g>
<defs>
<path id="path0_fill" d="M 21.9944 23.3393L 20.4205 5.93006C 20.3868 5.54356 20.0552 5.25092 19.6674 5.25092L 16.4297 5.25092C 16.3848 2.34663 13.9678 0 11 0C 8.03219 0 5.61523 2.34663 5.57026 5.25092L 2.33265 5.25092C 1.93919 5.25092 1.61318 5.54356 1.57946 5.93006L 0.00562093 23.3393C 0.00562093 23.3614 -4.28837e-08 23.3834 -4.28837e-08 23.4055C -4.28837e-08 25.3877 1.84926 27 4.1257 27L 17.8743 27C 20.1507 27 22 25.3877 22 23.4055C 22 23.3834 22 23.3614 21.9944 23.3393ZM 11 1.4908C 13.1303 1.4908 14.8671 3.16933 14.9121 5.25092L 7.08789 5.25092C 7.13286 3.16933 8.8697 1.4908 11 1.4908ZM 17.8743 25.5092L 4.1257 25.5092C 2.69801 25.5092 1.54011 24.5816 1.51763 23.4387L 3.02402 6.74724L 5.56464 6.74724L 5.56464 9.01104C 5.56464 9.42515 5.90189 9.75644 6.32345 9.75644C 6.74502 9.75644 7.08227 9.42515 7.08227 9.01104L 7.08227 6.74724L 14.9121 6.74724L 14.9121 9.01104C 14.9121 9.42515 15.2494 9.75644 15.6709 9.75644C 16.0925 9.75644 16.4297 9.42515 16.4297 9.01104L 16.4297 6.74724L 18.9704 6.74724L 20.4824 23.4387C 20.4599 24.5816 19.2964 25.5092 17.8743 25.5092Z"/>
</defs>
</svg>
