<svg width="22" height="21" viewBox="0 0 22 21" version="1.1" xmlns="http://www.w3.org/2000/svg" xmlns:xlink="http://www.w3.org/1999/xlink">
<title>OPT_ICON</title>
<desc>Created using Figma</desc>
<g id="Canvas" transform="translate(-850 -238)">
<g id="OPT_ICON">
<g id="Group">
<g id="Group">
<g id="Group">
<g id="Vector">
<use xlink:href="#path0_fill" transform="translate(856.417 246.404)" fill="#FFFFFF"/>
</g>
</g>
</g>
<g id="Group">
<g id="Group">
<g id="Vector">
<use xlink:href="#path1_fill" transform="translate(861.48 251.454)" fill="#FFFFFF"/>
</g>
</g>
</g>
<g id="Group">
<g id="Group">
<g id="Group">
<g id="Vector">
<use xlink:href="#path2_fill" transform="translate(857.377 247.361)" fill="#FFFFFF"/>
</g>
</g>
</g>
<g id="Group">
<g id="Group">
<g id="Vector">
<use xlink:href="#path3_fill" transform="translate(850 238)" fill="#FFFFFF"/>
</g>
</g>
</g>
</g>
</g>
</g>
</g>
<defs>
<path id="path0_fill" d="M 4.10317 2.04646C 4.10317 0.914375 3.18651 -3.32197e-07 2.05159 -3.32197e-07C 0.916667 -3.32197e-07 -8.32573e-08 0.914375 -8.32573e-08 2.04646C -8.32573e-08 3.17854 0.916667 4.09292 2.05159 4.09292C 3.18651 4.09292 4.10317 3.17854 4.10317 2.04646ZM 1.39683 2.04646C 1.39683 1.65458 1.70238 1.34979 2.09524 1.34979C 2.4881 1.34979 2.79365 1.65458 2.79365 2.04646C 2.79365 2.43833 2.4881 2.74312 2.09524 2.74312C 1.70238 2.69958 1.39683 2.39479 1.39683 2.04646Z"/>
<path id="path1_fill" d="M 2.05159 -1.66098e-07C 0.916667 -1.66098e-07 -3.33029e-07 0.914374 -3.33029e-07 2.04646C -3.33029e-07 3.17854 0.916667 4.09292 2.05159 4.09292C 3.18651 4.09292 4.10317 3.17854 4.10317 2.04646C 4.10317 0.914374 3.18651 -1.66098e-07 2.05159 -1.66098e-07ZM 2.05159 2.69958C 1.65873 2.69958 1.35317 2.39479 1.35317 2.00292C 1.35317 1.61104 1.65873 1.30625 2.05159 1.30625C 2.44444 1.30625 2.75 1.61104 2.75 2.00292C 2.75 2.39479 2.44444 2.69958 2.05159 2.69958Z"/>
<path id="path2_fill" d="M -1.66515e-07 6.27L 6.28571 0L 7.24603 0.957917L 0.960318 7.22792L -1.66515e-07 6.27Z"/>
<path id="path3_fill" d="M 18.7698 0L 3.27381 0L 0 5.52979L 0 20.9L 22 20.9L 22 5.52979L 18.7698 0ZM 4.05952 1.34979L 17.9841 1.34979L 20.1667 5.05083L 1.87698 5.05083L 4.05952 1.34979ZM 1.35317 19.5067L 1.35317 6.40063L 20.6468 6.40063L 20.6468 19.5067L 1.35317 19.5067Z"/>
</defs>
</svg>
